 <svg version="1.0" xmlns="http://www.w3.org/2000/svg"  width="300.000000pt" height="300.000000pt" viewBox="0 0 300.000000 300.000000"  preserveAspectRatio="xMidYMid meet">  <g transform="translate(0.000000,300.000000) scale(0.100000,-0.100000)" fill="#000000" stroke="none"> <path d="M1345 2034 c-82 -48 -155 -94 -161 -103 -9 -11 -13 -71 -13 -187 -1 -164 0 -172 22 -191 35 -32 291 -173 312 -173 11 0 47 16 80 35 33 20 76 43 95 53 19 9 40 21 45 25 6 4 31 21 58 37 l47 30 0 183 c0 211 6 195 -105 257 -34 19 -96 54 -137 78 -42 23 -80 42 -84 42 -5 0 -77 -39 -159 -86z m315 -28 l145 -84 3 -174 2 -175 -153 -87 -154 -86 -152 86 -151 87 2 175 3 174 145 84 c80 46 150 83 155 83 6 0 75 -37 155 -83z"></path> <path d="M1363 1988 l-143 -81 0 -161 0 -161 139 -77 c77 -43 143 -78 148 -78 4 0 69 35 143 78 l135 78 3 160 2 160 -112 64 c-62 35 -126 72 -143 81 l-30 18 -142 -81z m272 -24 c81 -46 117 -72 121 -88 3 -13 4 -80 2 -150 l-3 -127 -50 -28 c-27 -16 -84 -48 -125 -71 l-74 -43 -52 27 c-29 15 -86 48 -128 73 l-76 45 0 147 0 147 118 66 c64 37 125 67 135 67 10 1 69 -29 132 -65z"></path> <path d="M1422 1863 c-11 -10 -35 -57 -52 -105 -27 -73 -30 -90 -20 -103 23 -27 53 -14 75 33 23 49 35 54 35 14 0 -15 5 -33 12 -40 18 -18 55 -14 71 8 l14 20 18 -20 c20 -22 55 -26 73 -8 16 16 16 180 0 196 -19 19 -56 14 -68 -8 -11 -20 -11 -20 -40 1 -17 13 -37 20 -49 16 -12 -3 -24 -1 -27 4 -8 13 -19 11 -42 -8z m34 -30 c-29 -89 -66 -168 -81 -171 -9 -2 -16 0 -14 5 2 4 19 47 38 96 21 53 39 87 48 87 9 0 12 -6 9 -17z m97 -38 l42 -55 3 56 c2 43 6 55 18 52 12 -2 16 -21 17 -91 2 -110 -8 -113 -76 -23 l-37 49 0 -57 c0 -49 -2 -56 -20 -56 -19 0 -20 7 -20 90 0 110 11 115 73 35z"></path> <path d="M987 1262 c-21 -23 -23 -148 -3 -174 18 -24 53 -23 67 3 11 21 11 21 32 1 29 -26 170 -31 197 -7 15 14 18 14 30 0 16 -19 39 -19 61 1 17 15 19 15 34 0 37 -37 67 -11 96 85 12 38 18 76 15 84 -9 23 -35 29 -62 15 -19 -11 -27 -11 -36 -2 -17 17 -43 15 -58 -3 -12 -14 -15 -14 -30 0 -14 12 -40 15 -124 14 -91 -2 -109 -5 -119 -20 -10 -17 -12 -17 -35 2 -31 24 -44 24 -65 1z m70 -51 c21 -28 41 -50 44 -50 3 -1 4 22 1 50 -4 46 -3 51 14 47 16 -3 19 -14 22 -81 3 -70 1 -77 -16 -77 -11 0 -33 20 -53 48 l-34 47 -3 -47 c-2 -34 -7 -48 -18 -48 -11 0 -14 17 -14 80 0 46 4 80 10 80 5 0 27 -22 47 -49z m208 28 c0 -10 -10 -13 -32 -11 -28 3 -33 0 -33 -17 0 -16 6 -21 25 -21 16 0 25 -6 25 -15 0 -9 -9 -15 -25 -15 -17 0 -25 -5 -25 -18 0 -15 6 -17 35 -14 27 3 35 1 35 -12 0 -13 -11 -16 -52 -16 l-53 0 2 77 c1 43 2 78 3 78 70 0 95 -4 95 -16z m60 -31 c11 -52 25 -73 25 -39 0 33 28 93 41 89 7 -2 19 -28 29 -58 l16 -55 8 40 c10 51 23 75 41 75 20 0 19 -4 -8 -86 -30 -88 -54 -94 -76 -19 l-15 50 -15 -53 c-22 -73 -47 -69 -72 13 -24 76 -24 97 -2 93 12 -2 21 -19 28 -50z"></path> <path d="M1552 1268 c-15 -15 -16 -152 -2 -179 10 -18 21 -19 121 -17 94 1 112 4 123 20 12 17 14 17 33 0 16 -13 41 -18 105 -20 81 -2 85 -1 98 23 10 20 11 28 2 37 -15 15 -15 81 0 96 9 9 7 16 -7 32 -16 17 -29 20 -101 18 -58 -1 -85 -6 -88 -15 -7 -17 -31 -17 -45 1 -13 16 -95 19 -123 4 -14 -6 -18 -21 -18 -58 0 -28 -4 -50 -10 -50 -5 0 -10 20 -10 43 0 62 -45 98 -78 65z m48 -73 l0 -65 30 0 c20 0 30 -5 30 -15 0 -11 -12 -15 -50 -15 l-50 0 0 73 c0 76 4 87 27 87 9 0 13 -18 13 -65z m113 -18 c2 -67 0 -77 -15 -77 -16 0 -18 11 -18 81 0 68 2 80 16 77 13 -2 16 -18 17 -81z m94 32 l38 -50 3 50 c2 37 7 51 18 51 11 0 14 -17 14 -80 0 -96 -11 -102 -61 -35 -19 24 -36 45 -39 45 -3 0 -4 -20 -2 -45 4 -40 2 -45 -17 -45 -19 0 -21 5 -21 73 0 106 11 112 67 36z m203 30 c0 -12 -7 -14 -30 -11 -25 4 -30 1 -30 -17 0 -16 6 -21 25 -21 16 0 25 -6 25 -15 0 -9 -9 -15 -25 -15 -18 0 -25 -5 -25 -18 0 -15 6 -18 30 -14 23 3 30 0 30 -12 0 -13 -11 -16 -50 -16 l-50 0 0 78 0 77 50 0 c39 0 50 -4 50 -16z"></path> <path d="M1306 990 c-31 -54 -19 -58 192 -56 l187 1 13 28 c9 18 10 33 5 38 -12 12 -314 16 -331 5 -8 -5 -18 -4 -25 3 -16 16 -21 14 -41 -19z m30 -6 c-3 -8 -2 -12 4 -9 6 3 10 4 10 1 0 -2 3 -13 7 -23 6 -16 5 -17 -11 -4 -15 13 -19 13 -27 0 -10 -16 -11 -4 -3 29 4 12 11 22 16 22 6 0 7 -7 4 -16z m74 6 c0 -5 -7 -7 -15 -4 -9 4 -15 0 -15 -10 0 -9 8 -16 17 -16 14 0 15 -2 4 -12 -18 -18 -46 19 -30 39 13 15 39 18 39 3z m36 -6 c-3 -8 -2 -13 3 -10 5 3 12 -1 15 -10 4 -12 1 -14 -14 -9 -13 4 -20 2 -20 -6 0 -7 -2 -10 -5 -7 -9 9 6 58 17 58 6 0 7 -7 4 -16z m69 -14 c0 -31 -31 -39 -40 -11 -8 26 2 43 23 39 11 -2 17 -13 17 -28z m47 21 c-17 -10 -17 -22 -1 -32 17 -10 4 -23 -16 -16 -8 4 -15 18 -15 32 0 19 5 25 23 25 16 0 18 -3 9 -9z m44 -8 c18 -24 18 -38 0 -24 -11 10 -15 8 -19 -6 -3 -10 -5 -3 -6 15 -1 36 6 40 25 15z m33 -15 c0 -28 -2 -30 -9 -13 -12 28 -12 45 0 45 6 0 10 -15 9 -32z m41 21 c0 6 5 11 12 11 9 0 9 -3 0 -12 -7 -7 -12 -21 -12 -32 0 -25 -15 -11 -25 24 -7 22 -6 23 9 11 10 -9 16 -10 16 -2z"></path> <path d="M1490 976 c0 -9 5 -16 10 -16 6 0 10 4 10 9 0 6 -4 13 -10 16 -5 3 -10 -1 -10 -9z"></path> </g> </svg> 